HIERARCHY
ROOT Hips
{
	OFFSET 0.000000 97.167313 0.000000
	CHANNELS 6 Xposition Yposition Zposition Xrotation Yrotation Zrotation
	JOINT Spine
	{
		OFFSET 0.000000 13.784798 0.064400
		CHANNELS 3 Xrotation Yrotation Zrotation
		JOINT Spine1
		{
			OFFSET 0.000000 12.037903 0.404700
			CHANNELS 3 Xrotation Yrotation Zrotation
			JOINT Spine2
			{
				OFFSET 0.000000 17.795601 0.420200
				CHANNELS 3 Xrotation Yrotation Zrotation
				JOINT Neck
				{
					OFFSET 0.000000 39.131302 11.954600
					CHANNELS 3 Xrotation Yrotation Zrotation
					JOINT Head
					{
						OFFSET 0.000000 14.456192 15.627699
						CHANNELS 3 Xrotation Yrotation Zrotation
						JOINT HeadTop_End
						{
							OFFSET 0.000000 15.703506 7.603401
							CHANNELS 3 Xrotation Yrotation Zrotation
							End Site
							{
								OFFSET 0.000000 17.447403 0.000000
							}
						}
					}
				}
				JOINT LeftShoulder
				{
					OFFSET 17.399500 24.608795 1.168800
					CHANNELS 3 Xrotation Yrotation Zrotation
					JOINT LeftArm
					{
						OFFSET 18.980635 5.765305 1.818600
						CHANNELS 3 Xrotation Yrotation Zrotation
						JOINT LeftForeArm
						{
							OFFSET 49.290169 0.000000 0.000000
							CHANNELS 3 Xrotation Yrotation Zrotation
							JOINT LeftHand
							{
								OFFSET 31.562012 0.000000 0.000000
								CHANNELS 3 Xrotation Yrotation Zrotation
								JOINT LeftHandThumb1
								{
									OFFSET 6.133995 -4.388519 7.076070
									CHANNELS 3 Xrotation Yrotation Zrotation
									JOINT LeftHandThumb2
									{
										OFFSET 6.037666 -3.485840 3.485847
										CHANNELS 3 Xrotation Yrotation Zrotation
										JOINT LeftHandThumb3
										{
											OFFSET 6.496506 -3.750763 3.750761
											CHANNELS 3 Xrotation Yrotation Zrotation
											JOINT LeftHandThumb4
											{
												OFFSET 5.616882 -3.242905 3.242910
												CHANNELS 3 Xrotation Yrotation Zrotation
												End Site
												{
													OFFSET -1.254608 7.132141 0.375429
												}
											}
										}
									}
								}
								JOINT LeftHandPinky1
								{
									OFFSET 18.920792 -0.453171 -11.426712
									CHANNELS 3 Xrotation Yrotation Zrotation
									JOINT LeftHandPinky2
									{
										OFFSET 4.919586 0.000000 0.000000
										CHANNELS 3 Xrotation Yrotation Zrotation
										JOINT LeftHandPinky3
										{
											OFFSET 5.233047 0.000000 0.000000
											CHANNELS 3 Xrotation Yrotation Zrotation
											JOINT LeftHandPinky4
											{
												OFFSET 5.571716 0.000000 0.000000
												CHANNELS 3 Xrotation Yrotation Zrotation
												End Site
												{
													OFFSET -3.459808 4.342407 -0.466164
												}
											}
										}
									}
								}
								JOINT LeftHandRing1
								{
									OFFSET 22.726120 -0.094986 -6.500475
									CHANNELS 3 Xrotation Yrotation Zrotation
									JOINT LeftHandRing2
									{
										OFFSET 6.408615 0.000000 0.000000
										CHANNELS 3 Xrotation Yrotation Zrotation
										JOINT LeftHandRing3
										{
											OFFSET 6.150223 0.000000 0.000000
											CHANNELS 3 Xrotation Yrotation Zrotation
											JOINT LeftHandRing4
											{
												OFFSET 6.145386 0.000000 0.000000
												CHANNELS 3 Xrotation Yrotation Zrotation
												End Site
												{
													OFFSET -3.671402 4.923981 -0.202372
												}
											}
										}
									}
								}
								JOINT LeftHandMiddle1
								{
									OFFSET 23.373947 0.000000 0.000001
									CHANNELS 3 Xrotation Yrotation Zrotation
									JOINT LeftHandMiddle2
									{
										OFFSET 6.996567 0.000000 0.000000
										CHANNELS 3 Xrotation Yrotation Zrotation
										JOINT LeftHandMiddle3
										{
											OFFSET 7.015945 0.000000 0.000000
											CHANNELS 3 Xrotation Yrotation Zrotation
											JOINT LeftHandMiddle4
											{
												OFFSET 7.721573 0.000000 0.000000
												CHANNELS 3 Xrotation Yrotation Zrotation
												End Site
												{
													OFFSET -4.651108 6.158463 0.251582
												}
											}
										}
									}
								}
								JOINT LeftHandIndex1
								{
									OFFSET 21.310577 -0.490082 6.209344
									CHANNELS 3 Xrotation Yrotation Zrotation
									JOINT LeftHandIndex2
									{
										OFFSET 7.536453 0.000000 0.000000
										CHANNELS 3 Xrotation Yrotation Zrotation
										JOINT LeftHandIndex3
										{
											OFFSET 7.512344 0.000000 0.000000
											CHANNELS 3 Xrotation Yrotation Zrotation
											JOINT LeftHandIndex4
											{
												OFFSET 10.212402 0.000000 0.000001
												CHANNELS 3 Xrotation Yrotation Zrotation
												End Site
												{
													OFFSET -5.180801 8.690506 1.388433
												}
											}
										}
									}
								}
							}
						}
					}
				}
				JOINT RightShoulder
				{
					OFFSET -17.399500 24.608795 1.168800
					CHANNELS 3 Xrotation Yrotation Zrotation
					JOINT RightArm
					{
						OFFSET -18.980635 5.765305 1.818600
						CHANNELS 3 Xrotation Yrotation Zrotation
						JOINT RightForeArm
						{
							OFFSET -49.290169 0.000000 0.000000
							CHANNELS 3 Xrotation Yrotation Zrotation
							JOINT RightHand
							{
								OFFSET -31.562012 0.000000 0.000000
								CHANNELS 3 Xrotation Yrotation Zrotation
								JOINT RightHandThumb1
								{
									OFFSET -6.133995 -4.388519 7.076070
									CHANNELS 3 Xrotation Yrotation Zrotation
									JOINT RightHandThumb2
									{
										OFFSET -6.037666 -3.485840 3.485847
										CHANNELS 3 Xrotation Yrotation Zrotation
										JOINT RightHandThumb3
										{
											OFFSET -6.496506 -3.750763 3.750761
											CHANNELS 3 Xrotation Yrotation Zrotation
											JOINT RightHandThumb4
											{
												OFFSET -5.616882 -3.242905 3.242910
												CHANNELS 3 Xrotation Yrotation Zrotation
												End Site
												{
													OFFSET 1.254608 7.132141 0.375429
												}
											}
										}
									}
								}
								JOINT RightHandIndex1
								{
									OFFSET -21.310577 -0.490082 6.209344
									CHANNELS 3 Xrotation Yrotation Zrotation
									JOINT RightHandIndex2
									{
										OFFSET -7.536453 0.000000 0.000000
										CHANNELS 3 Xrotation Yrotation Zrotation
										JOINT RightHandIndex3
										{
											OFFSET -7.512344 0.000000 0.000000
											CHANNELS 3 Xrotation Yrotation Zrotation
											JOINT RightHandIndex4
											{
												OFFSET -10.212402 0.000000 0.000001
												CHANNELS 3 Xrotation Yrotation Zrotation
												End Site
												{
													OFFSET 5.180801 8.690506 1.388433
												}
											}
										}
									}
								}
								JOINT RightHandMiddle1
								{
									OFFSET -23.373947 0.000000 0.000001
									CHANNELS 3 Xrotation Yrotation Zrotation
									JOINT RightHandMiddle2
									{
										OFFSET -6.996567 0.000000 0.000000
										CHANNELS 3 Xrotation Yrotation Zrotation
										JOINT RightHandMiddle3
										{
											OFFSET -7.015945 0.000000 0.000000
											CHANNELS 3 Xrotation Yrotation Zrotation
											JOINT RightHandMiddle4
											{
												OFFSET -7.721573 0.000000 0.000000
												CHANNELS 3 Xrotation Yrotation Zrotation
												End Site
												{
													OFFSET 4.651108 6.158463 0.251582
												}
											}
										}
									}
								}
								JOINT RightHandRing1
								{
									OFFSET -22.726120 -0.094986 -6.500475
									CHANNELS 3 Xrotation Yrotation Zrotation
									JOINT RightHandRing2
									{
										OFFSET -6.408615 0.000000 0.000000
										CHANNELS 3 Xrotation Yrotation Zrotation
										JOINT RightHandRing3
										{
											OFFSET -6.150223 0.000000 0.000000
											CHANNELS 3 Xrotation Yrotation Zrotation
											JOINT RightHandRing4
											{
												OFFSET -6.145386 0.000000 0.000000
												CHANNELS 3 Xrotation Yrotation Zrotation
												End Site
												{
													OFFSET 3.671402 4.923981 -0.202372
												}
											}
										}
									}
								}
								JOINT RightHandPinky1
								{
									OFFSET -18.920792 -0.453171 -11.426712
									CHANNELS 3 Xrotation Yrotation Zrotation
									JOINT RightHandPinky2
									{
										OFFSET -4.919586 0.000000 0.000000
										CHANNELS 3 Xrotation Yrotation Zrotation
										JOINT RightHandPinky3
										{
											OFFSET -5.233047 0.000000 0.000000
											CHANNELS 3 Xrotation Yrotation Zrotation
											JOINT RightHandPinky4
											{
												OFFSET -5.571716 0.000000 0.000000
												CHANNELS 3 Xrotation Yrotation Zrotation
												End Site
												{
													OFFSET 3.459808 4.342407 -0.466164
												}
											}
										}
									}
								}
							}
						}
					}
				}
			}
		}
	}
	JOINT LeftUpLeg
	{
		OFFSET 19.899099 -7.885101 -3.429500
		CHANNELS 3 Xrotation Yrotation Zrotation
		JOINT LeftLeg
		{
			OFFSET 1.745560 -36.997807 10.304700
			CHANNELS 3 Xrotation Yrotation Zrotation
			JOINT LeftFoot
			{
				OFFSET -1.745558 -29.803308 -13.615400
				CHANNELS 3 Xrotation Yrotation Zrotation
				JOINT LeftToeBase
				{
					OFFSET 1.181900 -18.539904 15.226099
					CHANNELS 3 Xrotation Yrotation Zrotation
					JOINT LeftToe_End
					{
						OFFSET -0.863701 1.402801 16.534700
						CHANNELS 3 Xrotation Yrotation Zrotation
						End Site
						{
							OFFSET 0.000000 16.616566 0.000000
						}
					}
				}
			}
		}
	}
	JOINT RightUpLeg
	{
		OFFSET -19.899099 -7.885101 -3.429500
		CHANNELS 3 Xrotation Yrotation Zrotation
		JOINT RightLeg
		{
			OFFSET -1.745560 -36.997807 10.304700
			CHANNELS 3 Xrotation Yrotation Zrotation
			JOINT RightFoot
			{
				OFFSET 1.745558 -29.803308 -13.615400
				CHANNELS 3 Xrotation Yrotation Zrotation
				JOINT RightToeBase
				{
					OFFSET -1.181900 -18.539904 15.226099
					CHANNELS 3 Xrotation Yrotation Zrotation
					JOINT RightToe_End
					{
						OFFSET 0.863701 1.402801 16.534700
						CHANNELS 3 Xrotation Yrotation Zrotation
						End Site
						{
							OFFSET 0.000000 16.616566 0.000000
						}
					}
				}
			}
		}
	}
}
MOTION
Frames: 4
Frame Time: 0.033333
0.085128 76.071800 1.241348 20.169240 -15.722932 -2.351311 6.339897 3.015885 0.669503 4.182233 0.968021 0.107360 4.206626 0.799717 0.177024 -10.342370 0.068838 0.979621 -22.774337 9.970382 0.521183 0.000000 -0.000000 0.000000 0.503880 2.145356 -7.945063 34.126972 -11.781787 -56.306351 0.000032 -61.221199 0.000017 -30.850889 0.838607 -1.099249 5.358066 -0.141372 9.666156 3.545764 27.155804 3.560560 3.579365 15.544290 0.630950 -0.000003 -0.000002 0.000003 2.967939 13.388222 -36.938923 0.139964 1.667043 -18.441888 -0.013606 0.754513 1.032466 -0.000000 0.000000 -0.000006 2.386872 10.570838 -32.882344 0.471659 2.115275 -18.421966 0.064947 0.187419 -1.985622 -0.000000 -0.000001 0.000001 0.409493 7.162243 -25.647905 0.416495 2.993229 -22.185339 0.003741 -0.023816 3.007763 0.000002 -0.000000 0.000008 -1.578838 0.825922 -19.703504 0.405089 2.871010 -21.069184 0.009629 -0.615554 3.987645 -0.000002 0.000000 -0.000004 0.661415 1.193752 14.645940 -14.699129 27.221722 54.101061 -0.000054 88.054689 0.000040 3.152476 19.661640 -15.858442 0.789362 -8.211564 -4.825407 0.020115 -13.361232 -9.371019 3.749479 -15.817791 -0.052382 -0.000000 0.000001 0.000003 -1.070473 -2.247355 17.231259 0.405442 -2.871961 21.079302 -0.189665 0.296866 8.932116 0.000003 -0.000001 -0.000001 0.438963 -7.256209 26.595136 0.417460 -2.995672 22.211558 0.081193 -1.101475 9.870307 0.000001 0.000000 -0.000009 2.698235 -11.184225 32.166103 0.472422 -2.116968 18.440360 -0.173525 0.866947 9.714781 -0.000001 -0.000000 0.000000 4.305386 -16.260309 34.920981 0.139795 -1.666340 18.434713 -0.527441 1.126987 9.842071 0.000001 0.000002 0.000001 -53.230109 8.205367 9.518303 94.731097 10.249810 1.180217 4.591797 9.984067 6.385621 -4.500848 0.000006 0.000011 -0.000001 0.000001 -0.000000 -35.418076 -2.113870 11.160283 53.585430 -2.705372 -0.535119 -29.655927 0.132458 -0.837015 -7.797691 0.030706 -0.846139 0.000000 -0.000001 0.000000 
0.171516 76.087265 18.838814 20.736864 -14.340365 -0.902937 6.319741 6.318841 -0.992235 4.205301 1.920909 -0.098731 4.235770 1.772977 0.009426 -10.534008 -0.592713 1.010368 -23.409811 4.379084 0.517645 0.000000 0.000000 0.000000 0.352681 1.617214 -5.233433 45.368121 -8.885800 -56.860256 0.000031 -67.731673 0.000025 -28.038294 2.985746 -1.300782 5.358068 -0.141373 9.666160 3.545763 27.155796 3.560558 3.579364 15.544288 0.630945 -0.000000 0.000001 0.000000 2.967938 13.388223 -36.938923 0.139966 1.667043 -18.441883 -0.013606 0.754513 1.032468 -0.000001 0.000002 -0.000002 2.386873 10.570838 -32.882344 0.471659 2.115275 -18.421966 0.064947 0.187415 -1.985616 -0.000001 0.000000 0.000005 0.409495 7.162244 -25.647905 0.416494 2.993231 -22.185339 0.003740 -0.023817 3.007765 -0.000001 -0.000001 0.000004 -1.578837 0.825922 -19.703508 0.405088 2.871015 -21.069182 0.009633 -0.615553 3.987642 -0.000001 0.000005 0.000002 0.474514 3.993049 10.558859 -31.360957 25.226262 57.394366 -0.000132 95.010322 0.000188 2.428152 16.753930 -12.702372 0.789363 -8.211562 -4.825407 0.020115 -13.361234 -9.371016 3.749476 -15.817791 -0.052388 -0.000002 0.000001 0.000002 -1.070475 -2.247352 17.231261 0.405444 -2.871961 21.079306 -0.189668 0.296870 8.932113 0.000001 -0.000002 0.000004 0.438963 -7.256208 26.595140 0.417459 -2.995671 22.211541 0.081193 -1.101475 9.870301 0.000001 0.000001 -0.000008 2.698232 -11.184224 32.166107 0.472421 -2.116971 18.440362 -0.173524 0.866945 9.714780 0.000000 0.000001 -0.000005 4.305384 -16.260307 34.920985 0.139792 -1.666339 18.434716 -0.527444 1.126988 9.842075 0.000002 -0.000001 0.000000 -74.376300 2.157561 9.740403 91.667457 9.036532 1.239164 2.097580 7.055319 6.880563 -2.574432 0.000005 0.000001 -0.000003 0.000001 0.000001 -19.296968 -1.623059 4.723948 49.298123 1.405574 0.633069 -31.946161 -1.098671 -0.413751 -18.983684 0.000008 -0.000001 0.000000 -0.000001 -0.000000 
0.181469 77.286293 37.109005 21.491277 -11.153409 0.721876 5.798536 9.382493 -2.737400 3.890340 2.737665 -0.396453 3.919865 2.643302 -0.261471 -10.541521 -1.419568 1.100837 -23.211466 -2.257110 0.579077 0.000000 -0.000000 0.000000 0.344776 -0.077234 -2.353946 55.828368 -3.023390 -56.949789 0.000004 -79.141272 0.000015 -20.832439 6.416560 -1.199580 5.358069 -0.141375 9.666160 3.545767 27.155799 3.560559 3.579367 15.544291 0.630949 0.000000 0.000003 -0.000002 2.967942 13.388228 -36.938927 0.139965 1.667049 -18.441885 -0.013607 0.754515 1.032468 0.000001 0.000002 0.000001 2.386871 10.570837 -32.882341 0.471658 2.115278 -18.421964 0.064949 0.187417 -1.985617 -0.000000 -0.000000 0.000005 0.409494 7.162244 -25.647900 0.416495 2.993235 -22.185341 0.003739 -0.023816 3.007766 0.000001 -0.000002 0.000004 -1.578838 0.825920 -19.703503 0.405088 2.871016 -21.069187 0.009631 -0.615551 3.987648 -0.000002 0.000001 0.000001 0.593514 5.618343 5.341900 -45.699703 22.633527 56.984651 0.000008 104.621443 0.000024 0.520833 11.502991 -8.087508 0.789359 -8.211564 -4.825403 0.020111 -13.361235 -9.371018 3.749475 -15.817789 -0.052384 -0.000001 -0.000001 0.000001 -1.070474 -2.247354 17.231261 0.405444 -2.871963 21.079304 -0.189671 0.296874 8.932112 -0.000005 -0.000001 0.000001 0.438960 -7.256213 26.595136 0.417458 -2.995674 22.211553 0.081189 -1.101477 9.870298 -0.000002 -0.000003 -0.000009 2.698231 -11.184226 32.166103 0.472422 -2.116969 18.440360 -0.173529 0.866942 9.714788 -0.000004 0.000001 -0.000003 4.305385 -16.260312 34.920978 0.139790 -1.666339 18.434716 -0.527436 1.126984 9.842075 0.000004 -0.000000 0.000002 -85.388867 -1.367771 6.180240 76.377702 6.800467 0.649947 0.961520 3.325777 3.472321 -3.618934 0.000002 -0.000003 -0.000002 0.000000 0.000000 -1.742832 -2.775140 -0.571697 33.880942 4.396148 1.110756 -22.103377 -2.475775 0.131932 -32.065549 -0.070368 1.779231 0.000000 0.000000 -0.000000 
0.230503 79.989265 56.245914 22.019487 -7.805992 1.587397 5.224168 11.736705 -4.045245 3.435174 3.228889 -0.631346 3.455133 3.190315 -0.492045 -10.633309 -2.233175 1.391208 -22.395152 -8.059381 0.740544 0.000000 -0.000000 -0.000000 0.493247 -1.750410 -0.362706 61.324642 4.588308 -57.630684 -0.001429 -88.666709 -0.001464 -12.269517 10.107753 -1.361309 5.358071 -0.141371 9.666158 3.545765 27.155799 3.560561 3.579366 15.544285 0.630947 0.000001 0.000001 -0.000001 2.967940 13.388224 -36.938916 0.139964 1.667048 -18.441886 -0.013605 0.754513 1.032465 0.000002 0.000001 0.000001 2.386872 10.570835 -32.882341 0.471657 2.115276 -18.421966 0.064948 0.187416 -1.985615 0.000001 -0.000001 0.000003 0.409497 7.162247 -25.647903 0.416496 2.993230 -22.185347 0.003742 -0.023820 3.007756 0.000003 -0.000001 0.000004 -1.578835 0.825923 -19.703501 0.405087 2.871013 -21.069185 0.009631 -0.615554 3.987642 -0.000003 0.000003 -0.000004 0.750979 5.919687 1.933510 -53.662232 22.272017 55.424622 -0.000014 113.571743 0.000021 0.176739 5.914084 -3.794591 0.789364 -8.211561 -4.825406 0.020115 -13.361237 -9.371013 3.749475 -15.817791 -0.052381 -0.000002 0.000000 0.000003 -1.070476 -2.247350 17.231261 0.405446 -2.871963 21.079308 -0.189669 0.296866 8.932107 -0.000003 0.000000 -0.000001 0.438964 -7.256208 26.595140 0.417456 -2.995673 22.211546 0.081189 -1.101477 9.870303 0.000000 0.000001 0.000003 2.698236 -11.184221 32.166103 0.472424 -2.116966 18.440360 -0.173525 0.866944 9.714775 0.000000 0.000001 -0.000005 4.305384 -16.260305 34.920981 0.139790 -1.666342 18.434722 -0.527439 1.126988 9.842068 -0.000001 -0.000001 -0.000001 -83.861568 -1.890495 2.684569 53.690785 5.460011 0.315608 -0.998762 0.946054 -2.097277 -2.035800 0.000000 -0.000000 -0.000000 -0.000000 -0.000000 14.101638 -3.691923 -0.291561 6.868939 4.727595 0.815448 13.897513 -0.438338 -4.158938 -59.351503 -1.864696 2.631151 -0.000000 -0.000001 -0.000000 
